<mxfile host="app.diagrams.net" modified="2024-06-03T07:19:10.787Z" agent="Mozilla/5.0 (X11; Linux x86_64) AppleWebKit/537.36 (KHTML, like Gecko) Chrome/124.0.0.0 Safari/537.36" version="24.4.4" etag="s5OUGI2DXfAHUhHnFoTU" type="github">
  <diagram name="第 1 页" id="N39X_6KFoOEHDDsWqxKT">
    <mxGraphModel>
      <root>
        <mxCell id="0" />
        <mxCell id="1" parent="0" />
      </root>
    </mxGraphModel>
  </diagram>
</mxfile>
